<svg aria-hidden="true" style="position:absolute;width:0;height:0;overflow:hidden" xmlns="http://www.w3.org/2000/svg">
  <defs>
    <symbol id="icon-Ellipse_1" viewBox="0 0 32 32">
      <path d="M31.273 16c0 8.435-6.838 15.273-15.273 15.273s-15.273-6.838-15.273-15.273c0-8.435 6.838-15.273 15.273-15.273s15.273 6.838 15.273 15.273z"></path>
      <path d="M31.273 16c0 8.435-6.838 15.273-15.273 15.273s-15.273-6.838-15.273-15.273c0-8.435 6.838-15.273 15.273-15.273s15.273 6.838 15.273 15.273z"></path>
      <path stroke-linejoin="miter" stroke-linecap="butt" stroke-miterlimit="4" stroke-width="1.4545" d="M31.273 16c0 8.435-6.838 15.273-15.273 15.273s-15.273-6.838-15.273-15.273c0-8.435 6.838-15.273 15.273-15.273s15.273 6.838 15.273 15.273z"></path>
    </symbol>
    <symbol >
      
    </symbol>
    <symbol >
      
    </symbol>
  </defs>
</svg>